HIERARCHY
ROOT joint_Root
{
	OFFSET 0.0 0.0 0.0
	CHANNELS 6 Xposition Yposition Zposition Zrotation Xrotation Yrotation 
	JOINT Hips
	{
		OFFSET 4.5925 91.4895 -427.239
		CHANNELS 6 Xposition Yposition Zposition Zrotation Xrotation Yrotation 
		JOINT Spine
		{
			OFFSET 15.7357 0.0 0.0
			CHANNELS 6 Xposition Yposition Zposition Zrotation Xrotation Yrotation 
			JOINT Chest
			{
				OFFSET 8.98455 -0.406207 0.0
				CHANNELS 6 Xposition Yposition Zposition Zrotation Xrotation Yrotation 
				JOINT Neck
				{
					OFFSET 16.3773 0.0 0.0
					CHANNELS 6 Xposition Yposition Zposition Zrotation Xrotation Yrotation 
					JOINT Head
					{
						OFFSET 6.45672 0.0 0.0
						CHANNELS 6 Xposition Yposition Zposition Zrotation Xrotation Yrotation 
						End Site
						{
							OFFSET 0.0 0.0 0.0
						}
					}
				}
				JOINT Shoulder_L
				{
					OFFSET 12.9942 -0.242716 4.98039
					CHANNELS 6 Xposition Yposition Zposition Zrotation Xrotation Yrotation 
					JOINT UpperArm_L
					{
						OFFSET 5.34809 0.0 0.0
						CHANNELS 6 Xposition Yposition Zposition Zrotation Xrotation Yrotation 
						JOINT LowerArm_L
						{
							OFFSET 24.3286 1.87007e-05 0.0
							CHANNELS 6 Xposition Yposition Zposition Zrotation Xrotation Yrotation 
							JOINT Hand_L
							{
								OFFSET 22.2916 0.0 0.0
								CHANNELS 6 Xposition Yposition Zposition Zrotation Xrotation Yrotation 
								End Site
								{
									OFFSET 0.0 0.0 0.0
								}
							}
						}
					}
				}
				JOINT Shoulder_R
				{
					OFFSET 12.9945 -0.242716 -4.98039
					CHANNELS 6 Xposition Yposition Zposition Zrotation Xrotation Yrotation 
					JOINT UpperArm_R
					{
						OFFSET -5.34813 0.0 0.0
						CHANNELS 6 Xposition Yposition Zposition Zrotation Xrotation Yrotation 
						JOINT LowerArm_R
						{
							OFFSET -24.3289 0.000322201 0.0
							CHANNELS 6 Xposition Yposition Zposition Zrotation Xrotation Yrotation 
							JOINT Hand_R
							{
								OFFSET -22.2915 -0.000108084 0.0
								CHANNELS 6 Xposition Yposition Zposition Zrotation Xrotation Yrotation 
								End Site
								{
									OFFSET 0.0 0.0 0.0
								}
							}
						}
					}
				}
			}
		}
		JOINT UpperLeg_L
		{
			OFFSET -2.19248 -6.46944 0.0
			CHANNELS 6 Xposition Yposition Zposition Zrotation Xrotation Yrotation 
			JOINT LowerLeg_L
			{
				OFFSET 39.0811 0.0 -1.23785e-05
				CHANNELS 6 Xposition Yposition Zposition Zrotation Xrotation Yrotation 
				JOINT Foot_L
				{
					OFFSET 40.9854 0.0 -1.26872e-05
					CHANNELS 6 Xposition Yposition Zposition Zrotation Xrotation Yrotation 
					JOINT Toes_L
					{
						OFFSET 11.7543 0.0 0.0
						CHANNELS 6 Xposition Yposition Zposition Zrotation Xrotation Yrotation 
						End Site
						{
							OFFSET 0.0 0.0 0.0
						}
					}
				}
			}
		}
		JOINT UpperLeg_R
		{
			OFFSET -2.19251 6.46944 0.0
			CHANNELS 6 Xposition Yposition Zposition Zrotation Xrotation Yrotation 
			JOINT LowerLeg_R
			{
				OFFSET -39.0811 -0.00228153 -0.0401928
				CHANNELS 6 Xposition Yposition Zposition Zrotation Xrotation Yrotation 
				JOINT Foot_R
				{
					OFFSET -40.9854 0.0 0.0
					CHANNELS 6 Xposition Yposition Zposition Zrotation Xrotation Yrotation 
					JOINT Toes_R
					{
						OFFSET -11.7543 0.0 0.0
						CHANNELS 6 Xposition Yposition Zposition Zrotation Xrotation Yrotation 
						End Site
						{
							OFFSET 0.0 0.0 0.0
						}
					}
				}
			}
		}
	}
}
MOTION
Frames:	6
Frame Time:	0.0333333
0.000000 0.000000 0.000000 0.000000 0.000000 -0.000000 6.339980 88.030300 -6.442290 92.411500 -2.779650 -2.936710 15.735700 0.000005 -0.000001 132.829000 81.574200 -134.712000 8.984550 -0.406207 -0.000000 4.863610 11.482400 -4.261740 16.377300 -0.000001 -0.000001 -6.188060 -0.140539 -0.998478 6.456720 -0.000001 -0.000000 -14.329000 -4.519790 -1.119930 12.994200 -0.242716 4.980390 -89.354100 -1.409870 -65.375700 5.348090 -0.000007 -0.000001 -51.391800 26.890700 1.292490 24.328600 0.000019 0.000005 16.279400 -6.323050 -110.664000 22.291600 -0.000001 0.000005 2.737610 5.402250 -3.009790 12.994500 -0.242716 -4.980390 89.309100 3.885150 -79.909500 -5.348130 -0.000001 -0.000004 -61.076200 45.212200 -8.887810 -24.328900 0.000322 -0.000009 -1.919490 0.615548 -107.775000 -22.291500 -0.000108 -0.000004 14.429500 5.470910 -5.404840 -2.192480 -6.469440 -0.000000 176.481000 0.761991 -29.643400 39.081100 -0.000007 -0.000012 -0.090038 0.098778 42.350500 40.985400 -0.000006 -0.000013 1.010320 -3.850020 -66.122700 11.754300 -0.000000 0.000003 -0.000000 -0.000001 -16.577500 -2.192510 6.469440 -0.000001 167.248000 9.250770 -169.935000 -39.081100 -0.002282 -0.040193 0.214433 -0.193108 47.559300 -40.985400 0.000008 0.000006 1.018670 6.192710 -36.892100 -11.754300 -0.000006 -0.000006 -0.021875 -0.177462 -23.827200
0.000000 0.000000 0.000000 0.000000 0.000000 -0.000000 7.156970 85.131100 1.742820 93.090900 -4.400020 -0.745714 15.735700 0.000005 -0.000001 126.579000 81.415200 -128.589000 8.984550 -0.406207 -0.000000 6.282760 10.229600 -4.586960 16.377300 -0.000001 -0.000001 -4.820820 0.305770 -0.866947 6.456720 -0.000001 -0.000000 -12.643300 -2.308620 -3.402690 12.994200 -0.242716 4.980390 -90.901600 1.925270 -64.902200 5.348090 -0.000007 -0.000001 -50.548000 23.641000 0.772745 24.328600 0.000019 0.000005 16.655700 -6.378640 -110.373000 22.291600 -0.000001 0.000005 4.331020 5.431770 -3.994470 12.994500 -0.242716 -4.980390 88.891200 5.881380 -79.305800 -5.348130 -0.000001 -0.000004 -60.572600 44.670700 -6.341510 -24.328900 0.000322 -0.000009 -3.366370 0.971902 -106.081000 -22.291500 -0.000108 -0.000004 14.298000 5.489710 -6.126200 -2.192480 -6.469440 -0.000000 174.723000 -2.305650 -26.781700 39.081100 -0.000007 -0.000012 -0.392691 0.294783 53.106300 40.985400 -0.000006 -0.000013 1.857840 -3.401680 -77.755400 11.754300 -0.000000 0.000003 -0.000475 -0.003813 -16.717200 -2.192510 6.469440 -0.000001 165.482000 4.576710 -170.955000 -39.081100 -0.002282 -0.040193 0.225286 -0.138125 58.119500 -40.985400 0.000008 0.000006 3.020920 1.725610 -38.196300 -11.754300 -0.000006 -0.000006 -0.020037 -0.167492 -23.416200
0.000000 0.000000 0.000000 0.000000 0.000000 -0.000000 7.821490 83.012300 9.114660 94.389000 -5.238760 -0.634457 15.735700 0.000005 -0.000001 119.420000 81.966300 -121.917000 8.984550 -0.406207 -0.000000 6.454310 7.897920 -5.440530 16.377300 -0.000001 -0.000001 -4.514230 0.524427 -1.069990 6.456720 -0.000001 -0.000000 -10.648400 -1.783030 -4.023980 12.994200 -0.242716 4.980390 -92.382000 5.047440 -64.696600 5.348090 -0.000007 -0.000001 -51.759100 22.376100 -1.746210 24.328600 0.000019 0.000005 17.588100 -6.377400 -109.313000 22.291600 -0.000001 0.000005 4.471850 5.445780 -4.489600 12.994500 -0.242716 -4.980390 88.293400 8.263770 -78.289900 -5.348130 -0.000001 -0.000004 -62.902700 41.751700 -0.721736 -24.328900 0.000322 -0.000009 0.359519 -0.065876 -101.181000 -22.291500 -0.000108 -0.000004 15.981300 5.526590 -7.633480 -2.192480 -6.469440 -0.000000 172.716000 -4.765700 -22.918600 39.081100 -0.000007 -0.000012 -0.495677 0.319291 57.213500 40.985400 -0.000006 -0.000013 2.798680 -2.955000 -85.890100 11.754300 -0.000000 0.000003 -0.000816 -0.005980 -16.791400 -2.192510 6.469440 -0.000001 163.632000 2.588620 -176.970000 -39.081100 -0.002282 -0.040193 0.224914 -0.080409 70.073100 -40.985400 0.000008 0.000006 7.703940 -1.074540 -38.608600 -11.754300 -0.000006 -0.000006 -0.019446 -0.164201 -23.280700
0.000000 0.000000 0.000000 0.000000 0.000000 -0.000000 7.890630 82.168800 15.795700 93.585900 -4.630110 -1.895380 15.735700 0.000005 -0.000001 110.483000 82.966600 -112.719000 8.984550 -0.406207 -0.000000 5.528500 4.954540 -4.710160 16.377300 -0.000001 -0.000001 -4.090340 -0.423466 -1.374300 6.456720 -0.000001 -0.000000 -9.282630 -1.917470 -4.041290 12.994200 -0.242716 4.980390 -92.306300 5.179120 -65.956300 5.348090 -0.000007 -0.000001 -58.878600 22.949100 -4.679120 24.328600 0.000019 0.000005 24.492900 -8.253730 -107.490000 22.291600 -0.000001 0.000005 3.368390 5.440170 -4.291630 12.994500 -0.242716 -4.980390 87.935700 8.717120 -76.621900 -5.348130 -0.000001 -0.000004 -67.555200 38.015400 6.467680 -24.328900 0.000322 -0.000009 6.831410 -0.833830 -96.930400 -22.291500 -0.000108 -0.000004 19.881600 5.510100 -6.946180 -2.192480 -6.469440 -0.000000 173.555000 -5.293600 -18.207200 39.081100 -0.000007 -0.000012 -0.553623 0.367972 56.390800 40.985400 -0.000006 -0.000013 3.181920 -2.311630 -90.930200 11.754300 -0.000000 0.000003 -0.001017 -0.007184 -16.831600 -2.192510 6.469440 -0.000001 165.129000 3.059370 174.197000 -39.081100 -0.002282 -0.040193 0.212497 -0.034513 80.652500 -40.985400 0.000008 0.000006 10.300500 -3.887110 -40.684100 -11.754300 -0.000006 -0.000006 -0.019074 -0.162106 -23.194500
0.000000 0.000000 0.000000 0.000000 0.000000 -0.000000 7.611870 82.741800 22.539300 91.339300 -3.949710 -3.612750 15.735700 0.000005 -0.000001 95.761900 83.887800 -97.008300 8.984550 -0.406207 -0.000000 4.412450 1.261670 -2.538630 16.377300 -0.000001 -0.000001 -4.237290 -1.134490 -1.681800 6.456720 -0.000001 -0.000000 -8.794740 -1.181990 -4.711030 12.994200 -0.242716 4.980390 -91.900100 4.579440 -67.439200 5.348090 -0.000007 -0.000001 -65.753400 25.628900 -7.358930 24.328600 0.000019 0.000005 28.347400 -9.646560 -107.255000 22.291600 -0.000001 0.000005 3.412650 5.431660 -3.998850 12.994500 -0.242716 -4.980390 87.882500 8.011610 -75.141300 -5.348130 -0.000001 -0.000004 -69.528700 36.466700 11.893500 -24.328900 0.000322 -0.000009 -0.963481 0.136593 -97.889700 -22.291500 -0.000108 -0.000004 16.840800 5.518420 -7.298050 -2.192480 -6.469440 -0.000000 175.736000 -5.301570 -11.381000 39.081100 -0.000007 -0.000012 0.077416 -0.064792 50.071200 40.985400 -0.000006 -0.000013 6.052560 -3.166950 -92.758900 11.754300 -0.000000 0.000003 -1.876250 -2.642170 -15.291500 -2.192510 6.469440 -0.000001 169.374000 3.337540 164.732000 -39.081100 -0.002282 -0.040193 0.167158 -0.009457 86.725500 -40.985400 0.000008 0.000006 10.331000 -5.588360 -44.270200 -11.754300 -0.000006 -0.000006 -0.018526 -0.158982 -23.065900
0.000000 0.000000 0.000000 0.000000 0.000000 -0.000000 7.131210 84.492100 29.513700 89.285200 -4.119880 -5.249980 15.735700 0.000005 -0.000001 77.900400 84.231800 -78.158300 8.984550 -0.406207 -0.000000 3.511290 -2.405620 -0.441534 16.377300 -0.000001 -0.000001 -4.494900 -1.597510 -1.644540 6.456720 -0.000001 -0.000000 -9.037970 0.107455 -5.147440 12.994200 -0.242716 4.980390 -91.185300 3.100890 -69.076000 5.348090 -0.000007 -0.000001 -69.731100 30.016000 -10.290800 24.328600 0.000019 0.000005 26.806300 -9.652930 -108.359000 22.291600 -0.000001 0.000005 5.391350 5.404140 -3.083850 12.994500 -0.242716 -4.980390 88.080900 6.677130 -73.923200 -5.348130 -0.000001 -0.000004 -69.659800 38.551500 15.181300 -24.328900 0.000322 -0.000009 -6.057200 1.096550 -100.222000 -22.291500 -0.000108 -0.000004 16.867000 5.527570 -7.688360 -2.192480 -6.469440 -0.000000 178.178000 -4.850090 -5.250620 39.081100 -0.000007 -0.000012 0.053321 -0.057103 43.037000 40.985400 -0.000006 -0.000013 5.404700 -2.189370 -85.404200 11.754300 -0.000000 0.000003 -1.618980 -1.910140 -19.672700 -2.192510 6.469440 -0.000001 174.180000 1.983520 156.283000 -39.081100 -0.002282 -0.040193 0.078052 -0.003780 87.168100 -40.985400 0.000008 0.000006 10.119800 -6.691030 -50.031300 -11.754300 -0.000006 -0.000006 -0.018229 -0.157276 -22.995600
